<svg width="12" height="12" viewBox="0 0 12 12" fill="none" xmlns="http://www.w3.org/2000/svg">
<g clip-path="url(#clip0_1047_1155)">
<path d="M9.40001 12C9.16001 12 8.93334 11.9333 8.72001 11.8L6.12001 10.16C6.04001 10.1067 5.96001 10.1067 5.88001 10.16L3.28001 11.8C3.04001 11.96 2.77334 12.02 2.48001 11.98C2.18667 11.94 1.93334 11.8267 1.72001 11.64C1.45334 11.4 1.32001 11.0933 1.32001 10.72V1.28C1.32001 0.933333 1.44667 0.633333 1.70001 0.38C1.95334 0.126667 2.25334 0 2.60001 0H9.40001C9.74667 0 10.0467 0.126667 10.3 0.38C10.5533 0.633333 10.68 0.933333 10.68 1.28V10.72C10.68 11.0667 10.5533 11.3667 10.3 11.62C10.0467 11.8733 9.74667 12 9.40001 12ZM6.00001 9.08C6.24001 9.08 6.46667 9.14667 6.68001 9.28L9.28001 10.92C9.30667 10.9467 9.34667 10.96 9.40001 10.96C9.45334 10.96 9.50001 10.94 9.54001 10.9C9.58001 10.86 9.60001 10.8 9.60001 10.72V1.28C9.60001 1.2 9.58001 1.14 9.54001 1.1C9.50001 1.06 9.45334 1.04 9.40001 1.04H2.60001C2.54667 1.04 2.50001 1.06 2.46001 1.1C2.42001 1.14 2.40001 1.2 2.40001 1.28V10.72C2.40001 10.8 2.43334 10.8667 2.50001 10.92C2.56667 10.9733 2.64001 10.9733 2.72001 10.92L5.32001 9.28C5.53334 9.14667 5.76001 9.08 6.00001 9.08Z" fill="#050B20"/>
</g>
<defs>
<clipPath id="clip0_1047_1155">
<rect width="12" height="12" fill="white" transform="matrix(1 0 0 -1 0 12)"/>
</clipPath>
</defs>
</svg>
