<svg width="18" height="18" viewBox="0 0 18 18" fill="none" xmlns="http://www.w3.org/2000/svg">
<path d="M3.00002 1.68001C2.44002 1.68001 1.96002 1.88001 1.56002 2.28001C1.16002 2.68001 0.960022 3.17001 0.960022 3.75001C0.960022 4.33001 1.16002 4.82001 1.56002 5.22001C1.96002 5.62001 2.44002 5.82001 3.00002 5.82001C3.56002 5.82001 4.04002 5.62001 4.44002 5.22001C4.84002 4.82001 5.04002 4.33001 5.04002 3.75001C5.04002 3.17001 4.84002 2.68001 4.44002 2.28001C4.04002 1.88001 3.56002 1.68001 3.00002 1.68001ZM3.00002 2.82001C3.24002 2.82001 3.46002 2.91001 3.66002 3.09001C3.86002 3.27001 3.96002 3.49001 3.96002 3.75001C3.96002 4.01001 3.86002 4.23001 3.66002 4.41001C3.46002 4.59001 3.24002 4.68001 3.00002 4.68001C2.76002 4.68001 2.54002 4.59001 2.34002 4.41001C2.14002 4.23001 2.04002 4.01001 2.04002 3.75001C2.04002 3.49001 2.14002 3.27001 2.34002 3.09001C2.54002 2.91001 2.76002 2.82001 3.00002 2.82001ZM3.00002 12.18C2.44002 12.18 1.96002 12.38 1.56002 12.78C1.16002 13.18 0.960022 13.67 0.960022 14.25C0.960022 14.83 1.16002 15.32 1.56002 15.72C1.96002 16.12 2.44002 16.32 3.00002 16.32C3.56002 16.32 4.04002 16.12 4.44002 15.72C4.84002 15.32 5.04002 14.83 5.04002 14.25C5.04002 13.67 4.84002 13.18 4.44002 12.78C4.04002 12.38 3.56002 12.18 3.00002 12.18ZM3.00002 13.32C3.24002 13.32 3.46002 13.41 3.66002 13.59C3.86002 13.77 3.96002 13.99 3.96002 14.25C3.96002 14.51 3.86002 14.73 3.66002 14.91C3.46002 15.09 3.24002 15.18 3.00002 15.18C2.76002 15.18 2.54002 15.09 2.34002 14.91C2.14002 14.73 2.04002 14.51 2.04002 14.25C2.04002 13.99 2.14002 13.77 2.34002 13.59C2.54002 13.41 2.76002 13.32 3.00002 13.32ZM9.00002 1.68001C8.44002 1.68001 7.96002 1.88001 7.56002 2.28001C7.16002 2.68001 6.96002 3.17001 6.96002 3.75001C6.96002 4.33001 7.16002 4.82001 7.56002 5.22001C7.96002 5.62001 8.44002 5.82001 9.00002 5.82001C9.56002 5.82001 10.04 5.62001 10.44 5.22001C10.84 4.82001 11.04 4.33001 11.04 3.75001C11.04 3.17001 10.84 2.68001 10.44 2.28001C10.04 1.88001 9.56002 1.68001 9.00002 1.68001ZM9.00002 2.82001C9.24002 2.82001 9.46002 2.91001 9.66002 3.09001C9.86002 3.27001 9.96002 3.49001 9.96002 3.75001C9.96002 4.01001 9.86002 4.23001 9.66002 4.41001C9.46002 4.59001 9.24002 4.68001 9.00002 4.68001C8.76002 4.68001 8.54002 4.59001 8.34002 4.41001C8.14002 4.23001 8.04002 4.01001 8.04002 3.75001C8.04002 3.49001 8.14002 3.27001 8.34002 3.09001C8.54002 2.91001 8.76002 2.82001 9.00002 2.82001ZM9.00002 12.18C8.44002 12.18 7.96002 12.38 7.56002 12.78C7.16002 13.18 6.96002 13.67 6.96002 14.25C6.96002 14.83 7.16002 15.32 7.56002 15.72C7.96002 16.12 8.44002 16.32 9.00002 16.32C9.56002 16.32 10.04 16.12 10.44 15.72C10.84 15.32 11.04 14.83 11.04 14.25C11.04 13.67 10.84 13.18 10.44 12.78C10.04 12.38 9.56002 12.18 9.00002 12.18ZM9.00002 13.32C9.24002 13.32 9.46002 13.41 9.66002 13.59C9.86002 13.77 9.96002 13.99 9.96002 14.25C9.96002 14.51 9.86002 14.73 9.66002 14.91C9.46002 15.09 9.24002 15.18 9.00002 15.18C8.76002 15.18 8.54002 15.09 8.34002 14.91C8.14002 14.73 8.04002 14.51 8.04002 14.25C8.04002 13.99 8.14002 13.77 8.34002 13.59C8.54002 13.41 8.76002 13.32 9.00002 13.32ZM15 1.68001C14.44 1.68001 13.96 1.88001 13.56 2.28001C13.16 2.68001 12.96 3.17001 12.96 3.75001C12.96 4.33001 13.16 4.82001 13.56 5.22001C13.96 5.62001 14.44 5.82001 15 5.82001C15.56 5.82001 16.04 5.62001 16.44 5.22001C16.84 4.82001 17.04 4.33001 17.04 3.75001C17.04 3.17001 16.84 2.68001 16.44 2.28001C16.04 1.88001 15.56 1.68001 15 1.68001ZM15 2.82001C15.24 2.82001 15.46 2.91001 15.66 3.09001C15.86 3.27001 15.96 3.49001 15.96 3.75001C15.96 4.01001 15.86 4.23001 15.66 4.41001C15.46 4.59001 15.24 4.68001 15 4.68001C14.76 4.68001 14.54 4.59001 14.34 4.41001C14.14 4.23001 14.04 4.01001 14.04 3.75001C14.04 3.49001 14.14 3.27001 14.34 3.09001C14.54 2.91001 14.76 2.82001 15 2.82001ZM15 12.18C14.44 12.18 13.96 12.38 13.56 12.78C13.16 13.18 12.96 13.67 12.96 14.25C12.96 14.83 13.16 15.32 13.56 15.72C13.96 16.12 14.44 16.32 15 16.32C15.56 16.32 16.04 16.12 16.44 15.72C16.84 15.32 17.04 14.83 17.04 14.25C17.04 13.67 16.84 13.18 16.44 12.78C16.04 12.38 15.56 12.18 15 12.18ZM15 13.32C15.24 13.32 15.46 13.41 15.66 13.59C15.86 13.77 15.96 13.99 15.96 14.25C15.96 14.51 15.86 14.73 15.66 14.91C15.46 15.09 15.24 15.18 15 15.18C14.76 15.18 14.54 15.09 14.34 14.91C14.14 14.73 14.04 14.51 14.04 14.25C14.04 13.99 14.14 13.77 14.34 13.59C14.54 13.41 14.76 13.32 15 13.32ZM2.46002 5.22001V12.72C2.46002 12.88 2.51002 13.02 2.61002 13.14C2.71002 13.26 2.84002 13.32 3.00002 13.32C3.16002 13.32 3.29002 13.26 3.39002 13.14C3.49002 13.02 3.54002 12.9 3.54002 12.78V5.22001C3.54002 5.10001 3.49002 4.98001 3.39002 4.86001C3.29002 4.74001 3.16002 4.68001 3.00002 4.68001C2.84002 4.68001 2.71002 4.74001 2.61002 4.86001C2.51002 4.98001 2.46002 5.10001 2.46002 5.22001ZM8.46002 5.22001V12.72C8.46002 12.88 8.51002 13.02 8.61002 13.14C8.71002 13.26 8.84002 13.32 9.00002 13.32C9.16002 13.32 9.29002 13.26 9.39002 13.14C9.49002 13.02 9.54002 12.9 9.54002 12.78V5.22001C9.54002 5.10001 9.49002 4.98001 9.39002 4.86001C9.29002 4.74001 9.16002 4.68001 9.00002 4.68001C8.84002 4.68001 8.71002 4.74001 8.61002 4.86001C8.51002 4.98001 8.46002 5.10001 8.46002 5.22001ZM14.46 5.22001V8.22001C14.46 8.30001 14.44 8.36001 14.4 8.40001C14.36 8.44001 14.32 8.46001 14.28 8.46001H3.00002C2.84002 8.46001 2.71002 8.51001 2.61002 8.61001C2.51002 8.71001 2.46002 8.84001 2.46002 9.00001C2.46002 9.16001 2.51002 9.29001 2.61002 9.39001C2.71002 9.49001 2.84002 9.54001 3.00002 9.54001H14.28C14.64 9.54001 14.94 9.42001 15.18 9.18001C15.42 8.94001 15.54 8.62001 15.54 8.22001V5.28001C15.54 5.12001 15.49 4.98001 15.39 4.86001C15.29 4.74001 15.16 4.68001 15 4.68001C14.84 4.68001 14.71 4.74001 14.61 4.86001C14.51 4.98001 14.46 5.10001 14.46 5.22001Z" fill="white"/>
</svg>
