<svg width="18" height="18" viewBox="0 0 18 18" fill="none" xmlns="http://www.w3.org/2000/svg">
<g clip-path="url(#clip0_1047_958)">
<path d="M18 10.62C18 12.66 17.4 14.48 16.2 16.08C16.08 16.24 15.92 16.33 15.72 16.35C15.52 16.37 15.34 16.32 15.18 16.2C15.02 16.08 14.93 15.93 14.91 15.75C14.89 15.57 14.94 15.4 15.06 15.24C16.1 13.88 16.62 12.34 16.62 10.62C16.62 9.25999 16.28 7.99999 15.6 6.83999C14.92 5.67999 13.99 4.75999 12.81 4.07999C11.63 3.39999 10.36 3.05999 9 3.05999C7.64 3.05999 6.37 3.39999 5.19 4.07999C4.01 4.75999 3.08 5.67999 2.4 6.83999C1.72 7.99999 1.38 9.25999 1.38 10.62C1.38 12.34 1.9 13.88 2.94 15.24C3.06 15.4 3.11 15.57 3.09 15.75C3.07 15.93 2.98 16.08 2.82 16.2C2.66 16.32 2.48 16.37 2.28 16.35C2.08 16.33 1.92 16.24 1.8 16.08C0.6 14.48 0 12.66 0 10.62C0 9.01999 0.4 7.52999 1.2 6.14999C2 4.76999 3.09 3.67999 4.47 2.87999C5.85 2.07999 7.36 1.67999 9 1.67999C10.64 1.67999 12.15 2.07999 13.53 2.87999C14.91 3.67999 16 4.76999 16.8 6.14999C17.6 7.52999 18 9.01999 18 10.62ZM13.44 6.41999C13.6 6.53999 13.68 6.69999 13.68 6.89999C13.68 7.09999 13.6 7.25999 13.44 7.37999L11.16 9.71999C11.36 10.08 11.46 10.46 11.46 10.86C11.46 11.54 11.22 12.12 10.74 12.6C10.26 13.08 9.68 13.32 9 13.32C8.32 13.32 7.74 13.08 7.26 12.6C6.78 12.12 6.54 11.54 6.54 10.86C6.54 10.18 6.78 9.59999 7.26 9.11999C7.74 8.63999 8.32 8.39999 9 8.39999C9.4 8.39999 9.78 8.49999 10.14 8.69999L12.48 6.41999C12.6 6.25999 12.76 6.17999 12.96 6.17999C13.16 6.17999 13.32 6.25999 13.44 6.41999ZM10.08 10.86C10.08 10.58 9.97 10.34 9.75 10.14C9.53 9.93999 9.28 9.83999 9 9.83999C8.72 9.83999 8.47 9.93999 8.25 10.14C8.03 10.34 7.92 10.58 7.92 10.86C7.92 11.14 8.03 11.39 8.25 11.61C8.47 11.83 8.72 11.94 9 11.94C9.28 11.94 9.53 11.83 9.75 11.61C9.97 11.39 10.08 11.14 10.08 10.86Z" fill="white"/>
</g>
<defs>
<clipPath id="clip0_1047_958">
<rect width="18" height="18" fill="white" transform="matrix(1 0 0 -1 0 18)"/>
</clipPath>
</defs>
</svg>
