<svg width="15" height="15" viewBox="0 0 15 15" fill="none" xmlns="http://www.w3.org/2000/svg">
<path d="M6.84995 1.2C5.81662 1.2 4.87495 1.45 4.02495 1.95C3.17495 2.45 2.49162 3.13333 1.97495 4C1.45828 4.86667 1.19995 5.80833 1.19995 6.825C1.19995 7.84167 1.45828 8.78333 1.97495 9.65C2.49162 10.5167 3.17495 11.2 4.02495 11.7C4.87495 12.2 5.81662 12.45 6.84995 12.45C7.48328 12.45 8.09995 12.3417 8.69995 12.125C9.29995 11.9083 9.84995 11.6167 10.35 11.25L12.7 13.55C12.8 13.6833 12.9416 13.75 13.125 13.75C13.3083 13.75 13.4583 13.6917 13.575 13.575C13.6916 13.4583 13.75 13.3083 13.75 13.125C13.75 12.9417 13.6833 12.8 13.55 12.7L11.25 10.35C11.6166 9.85 11.9083 9.3 12.125 8.7C12.3416 8.1 12.45 7.48333 12.45 6.85C12.45 5.81667 12.2 4.86667 11.7 4C11.2 3.13333 10.5166 2.45 9.64995 1.95C8.78328 1.45 7.84995 1.2 6.84995 1.2ZM6.84995 2.45C7.64995 2.45 8.38328 2.65 9.04995 3.05C9.71662 3.45 10.2416 3.98333 10.625 4.65C11.0083 5.31667 11.2 6.04167 11.2 6.825C11.2 7.60833 11.0083 8.34167 10.625 9.025C10.2416 9.70833 9.71662 10.2417 9.04995 10.625C8.38328 11.0083 7.64995 11.2 6.84995 11.2C6.04995 11.2 5.31662 11.0083 4.64995 10.625C3.98328 10.2417 3.44995 9.70833 3.04995 9.025C2.64995 8.34167 2.44995 7.60833 2.44995 6.825C2.44995 6.04167 2.64995 5.31667 3.04995 4.65C3.44995 3.98333 3.98328 3.45 4.64995 3.05C5.31662 2.65 6.04995 2.45 6.84995 2.45Z" fill="white"/>
</svg>
